<?xml version="1.0" encoding="UTF-8"?>
<svg width="573px" height="115px" viewBox="0 0 573 115" version="1.1" xmlns="http://www.w3.org/2000/svg" xmlns:xlink="http://www.w3.org/1999/xlink">
    <!-- Generator: Sketch 45.2 (43514) - http://www.bohemiancoding.com/sketch -->
    <title>Logo</title>
    <desc>Created with Sketch.</desc>
    <defs></defs>
    <g id="temp" stroke="none" stroke-width="1" fill="none" fill-rule="evenodd">
        <g id="Logo" transform="translate(0.500101, 0.432263)" fill-rule="nonzero">
            <g id="Title" transform="translate(108.367434, 22.018722)" fill="#000000">
                <polyline id="Shape" points="445.183235 27.7435896 439.458367 27.7435896 439.458367 17.6149775 445.183235 17.6149775 445.183235 0.880748877 457.073344 0.880748877 457.073344 17.6149775 464.119335 17.6149775 464.119335 28.1839641 457.073344 28.1839641 457.073344 66.9369146 445.183235 66.9369146 445.183235 27.7435896"></polyline>
                <path d="M409.95328,17.6149775 L420.522266,17.6149775 L420.522266,22.0187219 C422.724138,18.9361008 424.92601,15.8534798 431.091253,15.8534798 L431.972001,15.8534798 L431.972001,27.3032152 C421.403015,27.7435896 421.403015,36.1107039 421.403015,39.193325 L421.403015,66.9369146 L409.512905,66.9369146 L409.512905,17.6149775 L409.95328,17.6149775" id="Shape"></path>
                <path d="M376.925197,15.8534798 C362.39284,15.8534798 350.943105,27.7435896 350.943105,41.8355716 C350.943105,56.3679281 362.39284,67.8176635 376.925197,67.8176635 C391.457553,67.8176635 402.907289,55.9275537 402.907289,41.8355716 C402.907289,27.3032152 391.457553,15.8534798 376.925197,15.8534798 M376.925197,57.248677 C368.558082,57.248677 361.952466,50.6430604 361.952466,41.8355716 C361.952466,33.4684573 368.558082,26.4224663 376.925197,26.4224663 C385.292311,26.4224663 391.897928,33.0280829 391.897928,41.8355716 C392.338302,50.202686 385.292311,57.248677 376.925197,57.248677" id="Shape"></path>
                <path d="M317.915022,15.8534798 C303.382665,15.8534798 291.93293,27.7435896 291.93293,41.8355716 C291.93293,44.4778183 291.93293,83.2307688 291.93293,83.2307688 L302.501917,83.2307688 L302.501917,62.9735447 L302.501917,41.8355716 C302.501917,33.4684573 309.107533,26.4224663 317.474647,26.4224663 C325.841762,26.4224663 332.887753,33.0280829 332.887753,41.8355716 C332.887753,50.202686 326.282136,57.248677 317.474647,57.248677 C314.392026,57.248677 311.309405,56.3679281 308.667159,54.6064303 C308.667159,58.5698003 308.667159,62.5331702 308.667159,66.9369146 C311.309405,67.8176635 314.392026,68.2580379 317.474647,68.2580379 C332.007004,68.2580379 343.456739,56.3679281 343.456739,42.2759461 C343.897114,27.3032152 332.007004,15.8534798 317.915022,15.8534798" id="Shape"></path>
                <path d="M268.593085,53.7256815 C266.391213,55.9275537 263.308592,57.248677 259.345222,57.248677 C250.978107,57.248677 246.574363,50.202686 245.693614,47.1200649 L283.565816,47.1200649 C284.00619,45.3585671 284.446565,43.5970694 284.446565,41.3951972 C284.446565,29.0647129 275.198701,15.8534798 258.904847,15.8534798 C243.491742,15.8534798 232.922755,28.1839641 232.922755,42.2759461 C232.922755,56.8083025 243.932116,68.2580379 258.904847,68.2580379 C269.473834,68.2580379 277.840948,61.6524214 281.363944,53.7256815 L268.593085,53.7256815 M259.345222,26.4224663 C265.510464,26.4224663 271.235331,29.9454618 272.556455,37.8722017 L245.25324,37.8722017 C247.455112,28.6243385 254.501103,26.4224663 259.345222,26.4224663" id="Shape"></path>
                <path d="M184.921942,0.880748877 L205.179166,0.880748877 C212.665531,0.880748877 217.50965,2.20187219 221.032646,5.28449326 C224.555641,8.36711433 228.519011,13.6516076 228.519011,21.137973 C228.519011,25.5417174 226.757513,32.147334 222.353769,36.9914528 C218.390399,40.5144483 214.867403,41.3951972 211.344408,42.2759461 L228.959385,66.4965402 L214.427029,66.4965402 L197.252426,41.3951972 L197.252426,66.4965402 L185.362316,66.4965402 L185.362316,0.880748877 L184.921942,0.880748877 M197.252426,32.5877084 L205.179166,32.5877084 C215.307778,32.5877084 216.628901,25.9820919 216.628901,22.4590964 C216.628901,18.9361008 214.427029,12.3304843 205.179166,12.3304843 L197.252426,12.3304843 L197.252426,32.5877084" id="Shape"></path>
                <path d="M155.416854,17.6149775 L165.985841,17.6149775 L165.985841,22.0187219 C168.187713,18.9361008 170.389585,15.8534798 176.554827,15.8534798 L177.875951,15.8534798 L177.875951,27.3032152 C167.306964,27.7435896 167.306964,36.1107039 167.306964,39.193325 L167.306964,66.9369146 L155.416854,66.9369146 L155.416854,17.6149775 L155.416854,17.6149775" id="Shape"></path>
                <path d="M132.517383,53.7256815 C130.315511,55.9275537 127.23289,57.248677 123.26952,57.248677 C114.902406,57.248677 110.498661,50.202686 109.617913,47.1200649 L147.490114,47.1200649 C147.930489,45.3585671 148.370863,43.5970694 148.370863,41.3951972 C148.370863,29.0647129 139.123,15.8534798 122.829146,15.8534798 C107.41604,15.8534798 96.8470539,28.1839641 96.8470539,42.2759461 C96.8470539,56.8083025 107.856415,68.2580379 122.829146,68.2580379 C133.398132,68.2580379 141.765247,61.6524214 145.288242,53.7256815 L132.517383,53.7256815 M122.829146,26.4224663 C128.994388,26.4224663 134.719256,29.9454618 136.040379,37.8722017 L108.737164,37.8722017 C111.37941,28.6243385 118.425401,26.4224663 122.829146,26.4224663" id="Shape"></path>
                <path d="M78.7917019,30.8262107 C77.9109531,26.8628407 75.2687064,26.4224663 73.9475831,26.4224663 C70.864962,26.4224663 69.1034643,28.6243385 69.1034643,30.8262107 C69.1034643,33.4684573 71.3053365,34.3492062 77.9109531,36.1107039 C84.5165696,37.8722017 92.4433095,40.9548228 92.4433095,50.6430604 C92.4433095,61.6524214 83.1954463,67.8176635 74.3879576,67.8176635 C69.1034643,67.8176635 62.9382222,66.0561657 58.9748522,61.2120469 C55.8922311,57.6890514 55.4518567,53.7256815 55.0114823,50.6430604 L67.782341,50.6430604 C68.2227154,52.8449326 69.5438387,56.8083025 74.3879576,56.8083025 C78.3513275,56.8083025 80.1128252,53.7256815 80.1128252,51.9641837 C80.1128252,48.4411882 77.4705786,47.5604393 68.6630899,44.4778183 C62.9382222,42.7163205 57.2133545,38.3125761 57.2133545,30.3858362 C57.2133545,20.6975986 66.4612177,14.9727309 74.3879576,14.9727309 C82.3146974,14.9727309 90.6818118,20.2572242 91.1221862,29.9454618 L78.7917019,29.9454618 L78.7917019,30.8262107" id="Shape"></path>
                <path d="M12.7355362,0.880748877 L12.7355362,42.2759461 C12.7355362,45.3585671 12.7355362,56.3679281 24.1852716,56.3679281 C35.635007,56.3679281 35.635007,45.7989416 35.635007,42.2759461 L35.635007,0.880748877 L47.5251168,0.880748877 L47.5251168,42.2759461 C47.5251168,47.5604393 46.6443679,53.285307 43.5617469,57.6890514 C39.5983769,62.9735447 32.9927604,67.3772891 24.1852716,67.3772891 C14.0566595,67.3772891 7.45104293,61.6524214 4.8087963,58.1294259 C2.60692411,55.4871792 0.845426355,50.202686 0.845426355,42.2759461 L0.845426355,0.880748877 L12.7355362,0.880748877" id="Shape"></path>
            </g>
            <g id="Icon" fill="#9084FF">
                <path d="M60.331298,56.3679281 C48.8815627,56.3679281 38.3125761,51.5238093 29.0647129,43.5970694 C35.6703295,59.0101747 47.1200649,69.1387868 60.331298,69.1387868 C73.1021568,69.1387868 84.5518922,59.0101747 91.5978832,43.5970694 C82.35002,51.5238093 71.7810334,56.3679281 60.331298,56.3679281" id="Shape"></path>
                <path d="M56.8083025,32.5877084 C56.8083025,37.93839 52.4706143,42.2759461 47.1200649,42.2759461 C41.7693834,42.2759461 37.4318273,37.93839 37.4318273,32.5877084 C37.4318273,27.2370269 41.7693834,22.8994708 47.1200649,22.8994708 C52.4706143,22.8994708 56.8083025,27.2370269 56.8083025,32.5877084" id="Shape"></path>
                <path d="M83.2307688,32.5877084 C83.2307688,37.93839 78.8930806,42.2759461 73.5425312,42.2759461 C68.1919818,42.2759461 63.8542936,37.93839 63.8542936,32.5877084 C63.8542936,27.2370269 68.1919818,22.8994708 73.5425312,22.8994708 C78.8930806,22.8994708 83.2307688,27.2370269 83.2307688,32.5877084" id="Shape"></path>
                <path d="M108.332112,87.6345132 C107.010989,86.7537643 106.13024,85.432641 105.689865,84.5518922 C104.368742,82.7903944 103.047619,80.1481478 102.607244,76.6251523 C101.286121,77.0655267 100.405372,77.5059011 99.0842486,77.5059011 L83.2307688,77.5059011 L70.9002846,77.5059011 L70.9002846,89.8363854 L70.9002846,93.7997554 L43.5970694,79.2673989 L40.9548228,77.9462756 L37.8722017,77.9462756 L22.0187219,77.9462756 C16.7342287,77.9462756 11.8901098,73.5425312 11.8901098,67.8176635 L11.8901098,22.0187219 C11.8901098,16.7342287 16.2938542,11.8901098 22.0187219,11.8901098 L98.6438742,11.8901098 C101.726495,11.8901098 104.368742,13.2112331 106.13024,15.4131053 L119.781847,15.4131053 C117.579975,6.60561657 108.772486,0 99.0842486,0 L22.0187219,0 C10.1286121,0 0,10.1286121 0,22.0187219 L0,67.3772891 C0,79.7077733 10.1286121,89.396011 22.0187219,89.396011 L37.8722017,89.396011 L83.2307688,114.497354 L83.2307688,89.8363854 L99.0842486,89.8363854 C102.607244,89.8363854 105.689865,88.9556365 108.332112,87.6345132" id="Shape"></path>
            </g>
        </g>
    </g>
</svg>